<svg width="30" height="30" viewBox="0 0 30 30" fill="none" xmlns="http://www.w3.org/2000/svg">
<path d="M12.981 17.402C13.372 17.8011 13.8388 18.1182 14.3539 18.3347C14.869 18.5511 15.4222 18.6626 15.981 18.6626C16.5397 18.6626 17.0929 18.5511 17.608 18.3347C18.1231 18.1182 18.5899 17.8011 18.981 17.402L23.781 12.602C24.5766 11.8064 25.0236 10.7272 25.0236 9.60202C25.0236 8.4768 24.5766 7.39767 23.781 6.60202C22.9853 5.80637 21.9062 5.35938 20.781 5.35938C19.6557 5.35937 18.5766 5.80637 17.781 6.60202L17.181 7.20202" stroke="#6F7A82" stroke-width="1.5" stroke-linecap="round" stroke-linejoin="round"/>
<path d="M17.7809 12.6005C17.3899 12.2013 16.9231 11.8843 16.408 11.6678C15.8928 11.4513 15.3397 11.3398 14.7809 11.3398C14.2222 11.3398 13.669 11.4513 13.1539 11.6678C12.6387 11.8843 12.172 12.2013 11.7809 12.6005L6.98092 17.4005C6.18527 18.1961 5.73828 19.2752 5.73828 20.4005C5.73828 21.5257 6.18527 22.6048 6.98092 23.4005C7.77657 24.1961 8.8557 24.6431 9.98092 24.6431C11.1061 24.6431 12.1853 24.1961 12.9809 23.4005L13.5809 22.8005" stroke="#6F7A82" stroke-width="1.5" stroke-linecap="round" stroke-linejoin="round"/>
</svg>
